<svg xmlns="http://www.w3.org/2000/svg" viewBox="0 0 109.95 109.95"><defs><clipPath id="arts_culture_humanities_svg__ARTS_CULTURE_HUMANITIES_svg__clip-path"><path class="arts_culture_humanities_svg__ARTS_CULTURE_HUMANITIES_svg__cls-1" transform="rotate(90 54.975 54.975)" d="M25.18 34.1h59.59v41.75H25.18z"/></clipPath><style>.arts_culture_humanities_svg__ARTS_CULTURE_HUMANITIES_svg__cls-1{fill:#b9cde5}.arts_culture_humanities_svg__ARTS_CULTURE_HUMANITIES_svg__cls-2{fill:#988bd3}.arts_culture_humanities_svg__ARTS_CULTURE_HUMANITIES_svg__cls-5{fill:#5454f4}.arts_culture_humanities_svg__ARTS_CULTURE_HUMANITIES_svg__cls-6{fill:#003b70}</style></defs><g id="arts_culture_humanities_svg__ARTS_CULTURE_HUMANITIES_svg__Layer_2" data-name="Layer 2"><g id="arts_culture_humanities_svg__ARTS_CULTURE_HUMANITIES_svg__Layer_1-2" data-name="Layer 1"><circle class="arts_culture_humanities_svg__ARTS_CULTURE_HUMANITIES_svg__cls-2" cx="54.97" cy="54.97" r="54.97"/><path fill="#fff" d="M28.1 19.18h53.75v71.59H28.1z"/><circle class="arts_culture_humanities_svg__ARTS_CULTURE_HUMANITIES_svg__cls-2" cx="81.85" cy="19.18" r="4.38"/><circle class="arts_culture_humanities_svg__ARTS_CULTURE_HUMANITIES_svg__cls-2" cx="28.1" cy="19.18" r="4.38"/><circle class="arts_culture_humanities_svg__ARTS_CULTURE_HUMANITIES_svg__cls-2" cx="81.85" cy="90.77" r="4.38"/><circle class="arts_culture_humanities_svg__ARTS_CULTURE_HUMANITIES_svg__cls-2" cx="28.1" cy="90.77" r="4.38"/><path class="arts_culture_humanities_svg__ARTS_CULTURE_HUMANITIES_svg__cls-1" transform="rotate(90 54.975 54.975)" d="M25.18 34.1h59.59v41.75H25.18z"/><g clip-path="url(#arts_culture_humanities_svg__ARTS_CULTURE_HUMANITIES_svg__clip-path)"><path class="arts_culture_humanities_svg__ARTS_CULTURE_HUMANITIES_svg__cls-5" d="M40.1 45.71h19.28v26.31H40.1z"/><path class="arts_culture_humanities_svg__ARTS_CULTURE_HUMANITIES_svg__cls-6" d="M40.1 72.02h19.28v12.75H40.1z"/><path class="arts_culture_humanities_svg__ARTS_CULTURE_HUMANITIES_svg__cls-1" d="M44.8 43.46l-2 9.6a1.5 1.5 0 001.47 1.81h1.88l-.78 4.79a3.27 3.27 0 003.22 3.79h6.07l-4 8.57H64V43.46z"/><circle class="arts_culture_humanities_svg__ARTS_CULTURE_HUMANITIES_svg__cls-6" cx="49.21" cy="50.56" r="1.64"/><path class="arts_culture_humanities_svg__ARTS_CULTURE_HUMANITIES_svg__cls-5" d="M40.1 45.71a14.88 14.88 0 1129.75 0z"/><path fill="#ff4671" d="M50.61 72.02l-10.02 21.2h29.26v-21.2H50.61z"/><path class="arts_culture_humanities_svg__ARTS_CULTURE_HUMANITIES_svg__cls-5" d="M57.66 88.71c0-4.3 3.44-4.3 3.44-8.6s-3.44-4.31-3.44-8.61 3.44-4.3 3.44-8.6-3.44-4.3-3.44-8.6 3.44-4.3 3.44-8.59h8.75v43z"/><path class="arts_culture_humanities_svg__ARTS_CULTURE_HUMANITIES_svg__cls-6" d="M57.68 72c.27 3.78 3.42 4 3.42 8.09 0 4.3-3.44 4.3-3.44 8.6h12.19V72z"/></g></g></g></svg>