<svg xmlns="http://www.w3.org/2000/svg" viewBox="0 0 109.95 109.95"><defs><clipPath id="education_svg__EDUCATION_svg__clip-path"><path class="education_svg__EDUCATION_svg__cls-1" d="M84 59.19a14.28 14.28 0 001-1.92v-.11a16.05 16.05 0 001.09-7.57A16.14 16.14 0 0056.9 41.8a2.15 2.15 0 01-3.49 0A16.11 16.11 0 0040.32 35a16.29 16.29 0 00-16.11 14.59 16.05 16.05 0 001.09 7.57v.11a14.28 14.28 0 00.95 1.92l13.56 27.45a7.36 7.36 0 00.44.89 8.32 8.32 0 0014.89-.9 8.31 8.31 0 0014.88.9 7.29 7.29 0 00.43-.89z"/></clipPath><style>.education_svg__EDUCATION_svg__cls-1{fill:#ff7053}.education_svg__EDUCATION_svg__cls-6{fill:none;stroke-miterlimit:10;stroke-width:6px;stroke:#c14639}</style></defs><g id="education_svg__EDUCATION_svg__Layer_2" data-name="Layer 2"><g id="education_svg__EDUCATION_svg__Layer_1-2" data-name="Layer 1"><circle cx="54.97" cy="54.97" r="54.97" fill="#b9cde5"/><path d="M39.78 17.19h5.33a10 10 0 0110 10v5.33h-5.28a10 10 0 01-10-10v-5.33h-.05z" fill="#007670"/><path d="M75.19 24.35a20 20 0 00-20 20v2.19" stroke="#b98d6c" fill="none" stroke-miterlimit="10" stroke-width="6"/><path class="education_svg__EDUCATION_svg__cls-1" d="M84 59.19a14.28 14.28 0 001-1.92v-.11a16.05 16.05 0 001.09-7.57A16.14 16.14 0 0056.9 41.8a2.15 2.15 0 01-3.49 0A16.11 16.11 0 0040.32 35a16.29 16.29 0 00-16.11 14.59 16.05 16.05 0 001.09 7.57v.11a14.28 14.28 0 00.95 1.92l13.56 27.45a7.36 7.36 0 00.44.89 8.32 8.32 0 0014.89-.9 8.31 8.31 0 0014.88.9 7.29 7.29 0 00.43-.89z"/><g clip-path="url(#education_svg__EDUCATION_svg__clip-path)"><path class="education_svg__EDUCATION_svg__cls-6" d="M95.22 44.38a20 20 0 11-5.87-14.17 19.93 19.93 0 015.87 14.17z"/><circle class="education_svg__EDUCATION_svg__cls-6" cx="33.25" cy="71.6" r="13.82"/></g></g></g></svg>