<svg xmlns="http://www.w3.org/2000/svg" viewBox="0 0 109.95 109.95"><defs><clipPath id="environment_svg__ENVIRONMENT_svg__clip-path"><path class="environment_svg__ENVIRONMENT_svg__cls-1" d="M79.7 47.5a18.23 18.23 0 00-8.32-2.43 18.46 18.46 0 10-32.81 0 18.23 18.23 0 00-8.32 2.43A18.45 18.45 0 1055 73.48a18.45 18.45 0 1024.73-26z"/></clipPath><style>.environment_svg__ENVIRONMENT_svg__cls-1{fill:#00ad6c}.environment_svg__ENVIRONMENT_svg__cls-5{fill:none;stroke-miterlimit:10;stroke-width:6px;stroke:#007670}</style></defs><g id="environment_svg__ENVIRONMENT_svg__Layer_2" data-name="Layer 2"><g id="environment_svg__ENVIRONMENT_svg__Layer_1-2" data-name="Layer 1"><circle cx="54.97" cy="54.97" r="54.97" fill="#abd24b"/><path stroke="#b98d6c" fill="none" stroke-miterlimit="10" stroke-width="6" d="M54.97 71.66v20.1"/><path class="environment_svg__ENVIRONMENT_svg__cls-1" d="M79.7 47.5a18.23 18.23 0 00-8.32-2.43 18.46 18.46 0 10-32.81 0 18.23 18.23 0 00-8.32 2.43A18.45 18.45 0 1055 73.48a18.45 18.45 0 1024.73-26z"/><g clip-path="url(#environment_svg__ENVIRONMENT_svg__clip-path)"><path class="environment_svg__ENVIRONMENT_svg__cls-5" d="M55 70.63a13.71 13.71 0 0113.68-13.71h22.71"/><path class="environment_svg__ENVIRONMENT_svg__cls-5" d="M55 70.63a13.7 13.7 0 00-13.7-13.71H18.55"/><path class="environment_svg__ENVIRONMENT_svg__cls-5" d="M55 79.44V47.67a23.33 23.33 0 00-23.35-23.33m46.65 0A23.34 23.34 0 0055 47.67"/></g></g></g></svg>