<svg xmlns="http://www.w3.org/2000/svg" viewBox="9.28 0 109.95 109.95"><defs><clipPath id="health_svg__HEALTH_svg__clip-path" transform="translate(9.28)"><circle class="health_svg__HEALTH_svg__cls-1" cx="54.97" cy="54.97" r="54.97"/></clipPath><clipPath id="health_svg__HEALTH_svg__clip-path-2" transform="translate(9.28)"><path class="health_svg__HEALTH_svg__cls-2" d="M26 53.6c-7-9.66-.78-23.6 11.11-24.25h1a17.22 17.22 0 0113.94 7.05 3.61 3.61 0 005.85 0 17.2 17.2 0 0113.92-7.08h1C84.72 30 90.92 43.94 84 53.6L61.85 84.38a8.48 8.48 0 01-13.76 0z"/></clipPath><style>.health_svg__HEALTH_svg__cls-1{fill:#efaed3}.health_svg__HEALTH_svg__cls-2{fill:#ff6145}</style></defs><g id="health_svg__HEALTH_svg__Layer_2" data-name="Layer 2"><g id="health_svg__HEALTH_svg__Layer_1-2" data-name="Layer 1"><circle class="health_svg__HEALTH_svg__cls-1" cx="64.25" cy="54.97" r="54.97"/><g clip-path="url(#health_svg__HEALTH_svg__clip-path)"><path d="M0 57h17.56c8 0 6.53 7.2 14.56 7.2s8-11.57 16.07-11.57 8 11.57 16.05 11.57 8.04-11.6 16.04-11.6" stroke="#ff4671" fill="none" stroke-miterlimit="10" stroke-width="6"/></g><path class="health_svg__HEALTH_svg__cls-2" d="M26 53.6c-7-9.66-.78-23.6 11.11-24.25h1a17.22 17.22 0 0113.94 7.05 3.61 3.61 0 005.85 0 17.2 17.2 0 0113.92-7.08h1C84.72 30 90.92 43.94 84 53.6L61.85 84.38a8.48 8.48 0 01-13.76 0z" transform="translate(9.28)"/><g clip-path="url(#health_svg__HEALTH_svg__clip-path-2)"><path d="M0 64.17c8 0 8-11.57 16.06-11.57s8 11.57 16.06 11.57 8-11.57 16.07-11.57 8 11.57 16.05 11.57S72.28 52.6 80.28 52.6s8 11.57 16.06 11.57 8-11.57 16.07-11.57 8 11.57 16.06 11.57" stroke="#6f005d" fill="none" stroke-miterlimit="10" stroke-width="6"/></g></g></g></svg>