<svg xmlns="http://www.w3.org/2000/svg" viewBox="0 0 109.95 109.95"><defs><clipPath id="human_services_svg__HUMAN_SERVICES_svg__clip-path"><path class="human_services_svg__HUMAN_SERVICES_svg__cls-1" d="M48.54 63.34h12.87A16.36 16.36 0 0177.77 79.7V90h-45.6V79.7a16.36 16.36 0 0116.37-16.36z"/></clipPath><style>.human_services_svg__HUMAN_SERVICES_svg__cls-1{fill:#b98d6c}.human_services_svg__HUMAN_SERVICES_svg__cls-3{fill:#4e84f6}</style></defs><g id="human_services_svg__HUMAN_SERVICES_svg__Layer_2" data-name="Layer 2"><g id="human_services_svg__HUMAN_SERVICES_svg__Layer_1-2" data-name="Layer 1"><circle cx="54.97" cy="54.97" r="54.97" fill="#ffda96"/><path class="human_services_svg__HUMAN_SERVICES_svg__cls-3" d="M55 60a22.8 22.8 0 1122.8-22.8A22.83 22.83 0 0155 60z"/><path class="human_services_svg__HUMAN_SERVICES_svg__cls-3" d="M55 37.21H32.17v9.28A16.56 16.56 0 0125 60a12.42 12.42 0 1019.59 10.16 12 12 0 00-.21-2.16H55z"/><circle cx="54.97" cy="37.21" r="16.8" fill="#cfccca"/><path class="human_services_svg__HUMAN_SERVICES_svg__cls-1" d="M48.54 63.34h12.87A16.36 16.36 0 0177.77 79.7V90h-45.6V79.7a16.36 16.36 0 0116.37-16.36z"/><g clip-path="url(#human_services_svg__HUMAN_SERVICES_svg__clip-path)"><path fill="#003b70" d="M30.63 61.46H80v21.11H30.63z"/><path d="M70.3 59.1a15.15 15.15 0 01-30.3 0" stroke="#ff4671" fill="none" stroke-miterlimit="10" stroke-width="6"/></g><path stroke="#cfccca" fill="none" stroke-miterlimit="10" stroke-width="6" d="M54.97 51.21v12.13"/><path d="M62.62 41.78a7.65 7.65 0 11-15.29 0z" fill="#fff"/><path class="human_services_svg__HUMAN_SERVICES_svg__cls-3" d="M71.26 26.55c-.08 0-12.79-9.13-12.79-9.13L55 19.75l-3.49-2.33s-12.71 9.17-12.8 9.13-1.91 10.66-1.91 10.66h2.4a16.74 16.74 0 0013.15-6.36 3.39 3.39 0 015.31 0 16.7 16.7 0 0013.14 6.36h2.41s-1.86-10.7-1.95-10.66z"/></g></g></svg>