<svg xmlns="http://www.w3.org/2000/svg" viewBox="0 0 109.95 109.95"><defs><clipPath id="human_and_civil_rights_svg__HUMAN_AND_CIVIL_RIGHTS_svg__clip-path"><path d="M87.2 39a2.89 2.89 0 01-.76-.1 126.1 126.1 0 00-62.94 0 3 3 0 11-1.5-5.85 132.27 132.27 0 0166 0 3 3 0 01-.8 5.95z" fill="none"/></clipPath><style>.human_and_civil_rights_svg__HUMAN_AND_CIVIL_RIGHTS_svg__cls-7{fill:none;stroke-miterlimit:10;stroke-width:6px}.human_and_civil_rights_svg__HUMAN_AND_CIVIL_RIGHTS_svg__cls-5{fill:#cbffe2}.human_and_civil_rights_svg__HUMAN_AND_CIVIL_RIGHTS_svg__cls-6{fill:#4e84f6}.human_and_civil_rights_svg__HUMAN_AND_CIVIL_RIGHTS_svg__cls-7{stroke:#4e84f6}.human_and_civil_rights_svg__HUMAN_AND_CIVIL_RIGHTS_svg__cls-8{fill:#003b70}</style></defs><g id="human_and_civil_rights_svg__HUMAN_AND_CIVIL_RIGHTS_svg__Layer_2" data-name="Layer 2"><g id="human_and_civil_rights_svg__HUMAN_AND_CIVIL_RIGHTS_svg__Layer_1-2" data-name="Layer 1"><circle cx="54.97" cy="54.97" r="54.97" fill="#6fd9e0"/><path stroke-miterlimit="10" stroke-width="6" stroke="#cbffe2" fill="none" d="M54.97 84.38V31.85"/><path stroke="#003b70" stroke-miterlimit="10" stroke-width="6" fill="none" d="M71.67 82.77h-33.4"/><path class="human_and_civil_rights_svg__HUMAN_AND_CIVIL_RIGHTS_svg__cls-5" d="M37.78 55.14l-6.47-11.27L24.91 55c-.81 1.41-4 1.33-4 1.33l-1.25-4.17 9-15.71a3 3 0 015.29 0l9 15.71-1.1 4.1s-3.51-.15-4.07-1.12z"/><path class="human_and_civil_rights_svg__HUMAN_AND_CIVIL_RIGHTS_svg__cls-6" d="M43 52.15a11.68 11.68 0 01-23.35 0z"/><path class="human_and_civil_rights_svg__HUMAN_AND_CIVIL_RIGHTS_svg__cls-5" d="M85.12 55.14l-6.48-11.27L72.25 55c-.81 1.41-4 1.33-4 1.33L67 52.15l9-15.71a3.05 3.05 0 015.3 0l9 15.71-1.11 4.1s-3.52-.14-4.07-1.11z"/><path class="human_and_civil_rights_svg__HUMAN_AND_CIVIL_RIGHTS_svg__cls-6" d="M90.32 52.15a11.68 11.68 0 01-23.36 0z"/><path class="human_and_civil_rights_svg__HUMAN_AND_CIVIL_RIGHTS_svg__cls-7" d="M54.97 85.77v-6.01"/><path class="human_and_civil_rights_svg__HUMAN_AND_CIVIL_RIGHTS_svg__cls-8" d="M87.2 39a2.89 2.89 0 01-.76-.1 126.1 126.1 0 00-62.94 0 3 3 0 11-1.5-5.85 132.27 132.27 0 0166 0 3 3 0 01-.8 5.95z"/><ellipse class="human_and_civil_rights_svg__HUMAN_AND_CIVIL_RIGHTS_svg__cls-8" cx="54.99" cy="28.91" rx="3.02" ry="3" transform="rotate(-.81 54.973 28.684)"/><g clip-path="url(#human_and_civil_rights_svg__HUMAN_AND_CIVIL_RIGHTS_svg__clip-path)"><path class="human_and_civil_rights_svg__HUMAN_AND_CIVIL_RIGHTS_svg__cls-7" d="M54.97 35.96v-8.75"/></g></g></g></svg>