<svg xmlns="http://www.w3.org/2000/svg" viewBox="0 0 109.95 109.95"><defs><style>.religion_svg__RELIGION_svg__cls-2{fill:#fff}.religion_svg__RELIGION_svg__cls-3{fill:#007670}.religion_svg__RELIGION_svg__cls-4{fill:#cfccca}.religion_svg__RELIGION_svg__cls-5{fill:none;stroke:#cfccca;stroke-linecap:round;stroke-miterlimit:10;stroke-width:6px}.religion_svg__RELIGION_svg__cls-6{fill:#231f20}</style></defs><g id="religion_svg__RELIGION_svg__Layer_2" data-name="Layer 2"><g id="religion_svg__RELIGION_svg__Layer_1-2" data-name="Layer 1"><circle cx="54.97" cy="54.97" r="54.97" fill="#f07752"/><path class="religion_svg__RELIGION_svg__cls-2" d="M73.83 62.47L62.65 18.13a3.15 3.15 0 00-3-2.37 3.14 3.14 0 00-3.14 3.13v43.52z"/><path class="religion_svg__RELIGION_svg__cls-3" d="M62.47 84.69h25.81L80 66.45a6.8 6.8 0 00-6.18-4H62.47z"/><path class="religion_svg__RELIGION_svg__cls-4" d="M56.47 62.47a8.68 8.68 0 0017.36 0z"/><path class="religion_svg__RELIGION_svg__cls-5" d="M59.47 62.41V46.25"/><path class="religion_svg__RELIGION_svg__cls-6" d="M65.15 71.15a8.68 8.68 0 008.68-8.68H62.47v8.25a8.55 8.55 0 002.68.43z"/><path class="religion_svg__RELIGION_svg__cls-2" d="M36.11 62.47L47.3 18.13a3.14 3.14 0 013-2.37 3.13 3.13 0 013.13 3.13v43.52z"/><path class="religion_svg__RELIGION_svg__cls-3" d="M47.47 84.69h-25.8l8.27-18.24a6.78 6.78 0 016.17-4h11.36z"/><path class="religion_svg__RELIGION_svg__cls-4" d="M53.47 62.47a8.68 8.68 0 11-17.36 0z"/><path class="religion_svg__RELIGION_svg__cls-5" d="M50.47 62.41V46.25"/><path class="religion_svg__RELIGION_svg__cls-6" d="M44.79 71.15a8.68 8.68 0 01-8.68-8.68h11.36v8.25a8.45 8.45 0 01-2.68.43z"/></g></g></svg>