<svg xmlns="http://www.w3.org/2000/svg" viewBox="0 0 109.95 109.95"><defs><clipPath id="research_and_public_policy_svg__RESEARCH_AND_PUBLIC_POLICY_svg__clip-path"><path class="research_and_public_policy_svg__RESEARCH_AND_PUBLIC_POLICY_svg__cls-1" d="M40.58 23.22a8 8 0 018 8v21.11h-16V31.22a8 8 0 018-8z"/></clipPath><clipPath id="research_and_public_policy_svg__RESEARCH_AND_PUBLIC_POLICY_svg__clip-path-2"><path class="research_and_public_policy_svg__RESEARCH_AND_PUBLIC_POLICY_svg__cls-1" d="M38.46 88.35a18.13 18.13 0 1136.25 0"/></clipPath><style>.research_and_public_policy_svg__RESEARCH_AND_PUBLIC_POLICY_svg__cls-1{fill:#4e84f6}.research_and_public_policy_svg__RESEARCH_AND_PUBLIC_POLICY_svg__cls-3,.research_and_public_policy_svg__RESEARCH_AND_PUBLIC_POLICY_svg__cls-5{fill:none;stroke-miterlimit:10;stroke-width:6px}.research_and_public_policy_svg__RESEARCH_AND_PUBLIC_POLICY_svg__cls-3{stroke:#ffff89}.research_and_public_policy_svg__RESEARCH_AND_PUBLIC_POLICY_svg__cls-5{stroke:#003b70}</style></defs><g id="research_and_public_policy_svg__RESEARCH_AND_PUBLIC_POLICY_svg__Layer_2" data-name="Layer 2"><g id="research_and_public_policy_svg__RESEARCH_AND_PUBLIC_POLICY_svg__Layer_1-2" data-name="Layer 1"><circle cx="54.97" cy="54.97" r="54.97" fill="#55c987"/><path class="research_and_public_policy_svg__RESEARCH_AND_PUBLIC_POLICY_svg__cls-3" d="M40.58 18.01v39.52"/><path class="research_and_public_policy_svg__RESEARCH_AND_PUBLIC_POLICY_svg__cls-1" d="M40.58 23.22a8 8 0 018 8v21.11h-16V31.22a8 8 0 018-8z"/><g clip-path="url(#research_and_public_policy_svg__RESEARCH_AND_PUBLIC_POLICY_svg__clip-path)"><path class="research_and_public_policy_svg__RESEARCH_AND_PUBLIC_POLICY_svg__cls-5" d="M40.58 18.01v39.52"/></g><path class="research_and_public_policy_svg__RESEARCH_AND_PUBLIC_POLICY_svg__cls-3" d="M71.44 37.37a21 21 0 00-14.86-6.15m14.86 6.15a21 21 0 01-14.86 35.85"/><path class="research_and_public_policy_svg__RESEARCH_AND_PUBLIC_POLICY_svg__cls-1" d="M38.46 88.35a18.13 18.13 0 1136.25 0"/><g clip-path="url(#research_and_public_policy_svg__RESEARCH_AND_PUBLIC_POLICY_svg__clip-path-2)"><path class="research_and_public_policy_svg__RESEARCH_AND_PUBLIC_POLICY_svg__cls-5" d="M56.58 31.22a21 21 0 11-21 21"/></g><circle cx="56.58" cy="31.22" r="8" fill="#003b70"/><path stroke-linecap="round" stroke="#ffff89" fill="none" stroke-miterlimit="10" stroke-width="6" d="M29.47 65.73H51.7"/></g></g></svg>